<?xml version="1.0" encoding="UTF-8"?>
<svg width="20px" height="20px" viewBox="0 0 20 20" version="1.1" xmlns="http://www.w3.org/2000/svg" xmlns:xlink="http://www.w3.org/1999/xlink">
    <!-- Generator: Sketch 59.1 (86144) - https://sketch.com -->
    <title>icon/20x20/camera</title>
    <desc>Created with Sketch.</desc>
    <g id="icon/20x20/camera" stroke="none" stroke-width="1" fill="none" fill-rule="evenodd">
        <g>
            <rect id="container" fill="#D8D8D8" opacity="0" x="0" y="0" width="20" height="20"></rect>
            <g id="camera" transform="translate(3.000000, 3.000000)" stroke="#FFFFFF">
                <path d="M0,4 L0,12 C6.76353751e-17,12.5522847 0.44771525,13 1,13 L13,13 C13.5522847,13 14,12.5522847 14,12 L14,4 C14,3.44771525 13.5522847,3 13,3 L1,3 C0.44771525,3 -6.76353751e-17,3.44771525 0,4 Z" id="Path" stroke-linecap="round" stroke-linejoin="round"></path>
                <line x1="5" y1="1" x2="2" y2="1" id="Line-3" stroke-linecap="round" stroke-linejoin="round"></line>
                <path d="M9.5,8 C9.5,6.62214237 8.37785763,5.5 7,5.5 C5.62214237,5.5 4.5,6.62214237 4.5,8 C4.5,9.37785763 5.62214237,10.5 7,10.5 C8.37785763,10.5 9.5,9.37785763 9.5,8 Z" id="Path"></path>
            </g>
        </g>
    </g>
</svg>