<svg xmlns:dc="http://purl.org/dc/elements/1.1/" xmlns:cc="http://creativecommons.org/ns#" xmlns:rdf="http://www.w3.org/1999/02/22-rdf-syntax-ns#" xmlns:svg="http://www.w3.org/2000/svg" xmlns="http://www.w3.org/2000/svg" xmlns:sodipodi="http://sodipodi.sourceforge.net/DTD/sodipodi-0.dtd" xmlns:inkscape="http://www.inkscape.org/namespaces/inkscape" version="1.1" x="0px" y="0px" viewBox="0 0 100 125"><g transform="translate(0,-952.36218)"><path style="font-size:medium;font-style:normal;font-variant:normal;font-weight:normal;font-stretch:normal;text-indent:0;text-align:start;text-decoration:none;line-height:normal;letter-spacing:normal;word-spacing:normal;text-transform:none;direction:ltr;block-progression:tb;writing-mode:lr-tb;text-anchor:start;baseline-shift:baseline;opacity:1;color:#000000;fill:#000000;fill-opacity:1;stroke:none;stroke-width:2;marker:none;visibility:visible;display:inline;overflow:visible;enable-background:accumulate;font-family:Sans;-inkscape-font-specification:Sans" d="M 67 12 C 59.313016 12 53 17.87254 53 25.1875 C 53 28.84496 54.51372 33.39209 56.96875 37.15625 C 59.42378 40.92041 62.896735 44 67 44 C 71.103261 44 74.576222 40.92039 77.03125 37.15625 C 79.486278 33.39211 81 28.84501 81 25.1875 C 81 17.87254 74.686984 12 67 12 z M 67 14 C 73.672424 14 79 19.02408 79 25.1875 C 79 28.26924 77.593793 32.61265 75.34375 36.0625 C 73.093707 39.51235 70.076443 42 67 42 C 63.923561 42 60.906297 39.51237 58.65625 36.0625 C 56.406203 32.61263 55 28.26919 55 25.1875 C 55 19.02408 60.327576 14 67 14 z M 33 22 C 25.313016 22 19 27.87254 19 35.1875 C 19 38.84496 20.513721 43.39208 22.96875 47.15625 C 25.423779 50.9204 28.896732 54 33 54 C 37.103263 54 40.576222 50.9204 43.03125 47.15625 C 45.486278 43.39209 47 38.84501 47 35.1875 C 47 27.87254 40.686984 22 33 22 z M 33 24 C 39.672424 24 45 29.02408 45 35.1875 C 45 38.26924 43.593794 42.61263 41.34375 46.0625 C 39.093706 49.5124 36.076441 52 33 52 C 29.923564 52 26.906297 49.5124 24.65625 46.0625 C 22.406203 42.61262 21 38.26919 21 35.1875 C 21 29.02408 26.327576 24 33 24 z M 67 50 C 58.241852 50 50.733011 57.003462 45.875 65.25 C 42.095897 62.077977 37.722497 60 33 60 C 26.647427 60 20.903425 63.7257 16.40625 68.875 C 11.909075 74.0243 8.5973869 80.6364 7.03125 86.75 A 1.0001 1.0001 0 0 0 8 88 L 13.96875 88 A 1.0001 1.0001 0 1 0 13.96875 86 L 9.375 86 C 10.976728 80.5515 13.979283 74.7197 17.9375 70.1875 C 22.195682 65.3119 27.436237 62 33 62 C 38.563965 62 43.800934 65.3118 48.0625 70.1875 C 52.023863 74.7197 55.023071 80.5517 56.625 86 L 22.84375 86 A 1.0001 1.0001 0 1 0 22.84375 88 L 58 88 A 1.0001 1.0001 0 0 0 58.96875 86.75 C 58.23041 83.867473 57.087581 80.898385 55.625 78 L 92 78 A 1.0001 1.0001 0 0 0 92.96875 76.75 C 91.402734 70.6361 88.092646 64.0242 83.59375 58.875 C 79.094854 53.7258 73.35274 50 67 50 z M 67 52 C 72.563965 52 77.802632 55.3118 82.0625 60.1875 C 86.022285 64.7197 89.023242 70.5516 90.625 76 L 54.5625 76 C 53.127655 73.467814 51.451908 71.036691 49.5625 68.875 C 48.871655 68.084598 48.152003 67.339998 47.40625 66.625 C 52.045663 58.594145 59.218809 52 67 52 z " transform="translate(0,952.36218)"/></g><text x="0" y="115" fill="#000000" font-size="5px" font-weight="bold" font-family="'Helvetica Neue', Helvetica, Arial-Unicode, Arial, Sans-serif">Created by cathy moser</text><text x="0" y="120" fill="#000000" font-size="5px" font-weight="bold" font-family="'Helvetica Neue', Helvetica, Arial-Unicode, Arial, Sans-serif">from the Noun Project</text></svg>