<svg xmlns:rdf="http://www.w3.org/1999/02/22-rdf-syntax-ns#" xmlns="http://www.w3.org/2000/svg" xmlns:cc="http://creativecommons.org/ns#" xmlns:dc="http://purl.org/dc/elements/1.1/" version="1.1" x="0px" y="0px" viewBox="0 0 100 125"><g transform="translate(0,-952.36218)"><path style="baseline-shift:baseline;block-progression:tb;color:#000000;direction:ltr;text-indent:0;enable-background:accumulate;text-transform:none;" fill="#000" d="m13.969,972.61c-2.6034,0-4.7188,2.1153-4.7188,4.7187v14.094c0,2.6033,2.1154,4.7187,4.7188,4.7187h13.75c2.6034,0,4.7188-2.1154,4.7188-4.7187v-14.094c0-2.6034-2.1154-4.7187-4.7188-4.7187h-13.75zm29.156,0c-2.6034,0-4.7188,2.1153-4.7188,4.7187v14.094c0,2.6033,2.1154,4.7187,4.7188,4.7187h13.75c2.6034,0,4.7188-2.1154,4.7188-4.7187v-14.094c0-2.6034-2.1154-4.7187-4.7188-4.7187h-13.75zm29.156,0c-2.6034,0-4.7188,2.1153-4.7188,4.7187v14.094c0,2.6033,2.1154,4.7187,4.7188,4.7187h13.75c2.6034,0,4.7188-2.1154,4.7188-4.7187v-14.094c0-2.6034-2.1154-4.7187-4.7188-4.7187h-13.75zm-58.312,1.5,13.75,0c1.7983,0,3.2188,1.4204,3.2188,3.2187v14.094c0,1.7983-1.4204,3.2187-3.2188,3.2187h-13.75c-1.7983,0-3.2188-1.4204-3.2188-3.2187v-14.094c0-1.7983,1.4204-3.2187,3.2188-3.2187zm29.156,0,13.75,0c1.7983,0,3.2188,1.4204,3.2188,3.2187v14.094c0,1.7983-1.4204,3.2187-3.2188,3.2187h-13.75c-1.7983,0-3.2188-1.4204-3.2188-3.2187v-14.094c0-1.7983,1.4204-3.2187,3.2188-3.2187zm29.156,0,13.75,0c1.7983,0,3.2188,1.4204,3.2188,3.2187v14.094c0,1.7983-1.4204,3.2187-3.2188,3.2187h-13.75c-1.7983,0-3.2188-1.4204-3.2188-3.2187v-14.094c0-1.7983,1.4204-3.2187,3.2188-3.2187zm-58.312,26.469c-2.6034,0-4.7188,2.1154-4.7188,4.7188v14.094c0,2.6034,2.1154,4.7188,4.7188,4.7188h13.75c2.6034,0,4.7188-2.1154,4.7188-4.7188v-14.094c0-2.6034-2.1154-4.7188-4.7188-4.7188h-13.75zm30.312,0c-2.6026,0-4.7188,2.1162-4.7188,4.7188v14.094c0,2.6027,2.1161,4.7188,4.7188,4.7188h5.7188a0.75007,0.75007,0,1,0,0,-1.5h-5.7188c-1.7994,0-3.2188-1.4194-3.2188-3.2188v-14.094c0-1.7992,1.4193-3.2188,3.2188-3.2188h13.75c1.7994,0,3.2188,1.4196,3.2188,3.2188v6.0312a0.75007,0.75007,0,1,0,1.5,0v-6.0312c0-2.6026-2.1161-4.7188-4.7188-4.7188h-13.75zm-30.312,1.5,13.75,0c1.7983,0,3.2188,1.4205,3.2188,3.2188v14.094c0,1.7984-1.4204,3.2188-3.2188,3.2188h-13.75c-1.7983,0-3.2188-1.4204-3.2188-3.2188v-14.094c0-1.7983,1.4204-3.2188,3.2188-3.2188zm48.031,12.5a0.75007,0.75007,0,0,0,-0.75,0.7812v7.2188h-7.25a0.75007,0.75007,0,0,0,-0.0625,0,0.75065,0.75065,0,1,0,0.0625,1.5h7.25v7.25a0.75007,0.75007,0,1,0,1.5,0v-7.25h7.25a0.75007,0.75007,0,1,0,0,-1.5h-7.25v-7.2188a0.75007,0.75007,0,0,0,-0.75,-0.9z"/></g><text x="0" y="115" fill="#000000" font-size="5px" font-weight="bold" font-family="'Helvetica Neue', Helvetica, Arial-Unicode, Arial, Sans-serif">Created by Royal@design</text><text x="0" y="120" fill="#000000" font-size="5px" font-weight="bold" font-family="'Helvetica Neue', Helvetica, Arial-Unicode, Arial, Sans-serif">from the Noun Project</text></svg>